<svg id="icon-member-sns" xmlns="http://www.w3.org/2000/svg" width="228" height="228" viewBox="0 0 76 76">
  <metadata><?xpacket begin="﻿" id="W5M0MpCehiHzreSzNTczkc9d"?>
<x:xmpmeta xmlns:x="adobe:ns:meta/" x:xmptk="Adobe XMP Core 5.6-c142 79.160924, 2017/07/13-01:06:39        ">
   <rdf:RDF xmlns:rdf="http://www.w3.org/1999/02/22-rdf-syntax-ns#">
      <rdf:Description rdf:about=""/>
   </rdf:RDF>
</x:xmpmeta>
                                                                                                    
                                                                                                    
                                                                                                    
                                                                                                    
                                                                                                    
                                                                                                    
                                                                                                    
                                                                                                    
                                                                                                    
                                                                                                    
                                                                                                    
                                                                                                    
                                                                                                    
                                                                                                    
                                                                                                    
                                                                                                    
                                                                                                    
                                                                                                    
                                                                                                    
                                                                                                    
                           
<?xpacket end="w"?></metadata>
<defs>
    <style>
      .cls-1 {
        fill: #fff;
      }

      .cls-2, .cls-4 {
        fill: #d7b077;
      }

      .cls-2, .cls-3, .cls-5 {
        fill-rule: evenodd;
      }

      .cls-5 {
        fill: #222;
      }
    </style>
  </defs>
  <rect class="cls-1" x="3.516" y="10.015" width="67" height="52"/>
  <path id="Rounded_Rectangle_540" data-name="Rounded Rectangle 540" class="cls-2" d="M256.015,1118.99h37.97a2.018,2.018,0,0,1,2.03,2h0a2.012,2.012,0,0,1-2.03,2h-37.97a2.013,2.013,0,0,1-2.031-2h0A2.019,2.019,0,0,1,256.015,1118.99Z" transform="translate(-237.484 -1071.985)"/>
  <path id="SNS" class="cls-3" d="M264.954,1118.99a3.089,3.089,0,0,1-1.846.48,3.566,3.566,0,0,1-2.1-.57,2.016,2.016,0,0,1-.809-1.75h-2.056l-0.018.05a3.3,3.3,0,0,0,1.468,2.92,5.942,5.942,0,0,0,3.515,1.06,5.519,5.519,0,0,0,3.362-.94,3,3,0,0,0,1.279-2.54,3.215,3.215,0,0,0-1.072-2.49,7.525,7.525,0,0,0-3.138-1.53,7.691,7.691,0,0,1-2.254-.91,1.442,1.442,0,0,1-.681-1.21,1.621,1.621,0,0,1,.628-1.32,3.351,3.351,0,0,1,3.7.1,2.07,2.07,0,0,1,.667,1.6h2.048l0.018-.05a3.4,3.4,0,0,0-1.235-2.73,4.9,4.9,0,0,0-3.388-1.14,5.178,5.178,0,0,0-3.3,1,3.109,3.109,0,0,0-1.279,2.55,2.97,2.97,0,0,0,1.156,2.43,8.91,8.91,0,0,0,3.3,1.49,5.578,5.578,0,0,1,2.1.91,1.632,1.632,0,0,1,.593,1.3A1.49,1.49,0,0,1,264.954,1118.99Zm15.038-10.79h-2.127v9.32l-0.052.02-5.678-9.34H270V1121h2.136v-9.33l0.053-.01,5.677,9.34h2.127v-12.8Zm9.079,10.79a3.086,3.086,0,0,1-1.845.48,3.567,3.567,0,0,1-2.1-.57,2.016,2.016,0,0,1-.809-1.75H282.26l-0.018.05a3.3,3.3,0,0,0,1.468,2.92,5.947,5.947,0,0,0,3.516,1.06,5.518,5.518,0,0,0,3.361-.94,3,3,0,0,0,1.279-2.54,3.215,3.215,0,0,0-1.072-2.49,7.525,7.525,0,0,0-3.138-1.53,7.691,7.691,0,0,1-2.254-.91,1.442,1.442,0,0,1-.681-1.21,1.621,1.621,0,0,1,.628-1.32,3.351,3.351,0,0,1,3.7.1,2.07,2.07,0,0,1,.668,1.6h2.048l0.017-.05a3.4,3.4,0,0,0-1.235-2.73,4.9,4.9,0,0,0-3.388-1.14,5.178,5.178,0,0,0-3.3,1,3.109,3.109,0,0,0-1.279,2.55,2.97,2.97,0,0,0,1.156,2.43,8.91,8.91,0,0,0,3.3,1.49,5.578,5.578,0,0,1,2.1.91,1.632,1.632,0,0,1,.593,1.3A1.49,1.49,0,0,1,289.071,1118.99Z" transform="translate(-237.484 -1071.985)"/>
  <circle class="cls-4" cx="68.516" cy="62.015" r="6"/>
  <path class="cls-5" d="M305.949,1135.99H241.994a3.016,3.016,0,0,1-3.017-2.99v-50.04a3.007,3.007,0,0,1,3.017-2.98h63.955a3.007,3.007,0,0,1,3.017,2.98V1133A3.016,3.016,0,0,1,305.949,1135.99Zm1.006-53.03a1.009,1.009,0,0,0-1.006-.99H241.994a1.009,1.009,0,0,0-1,.99V1094h65.966v-11.04Zm0,13.03H240.989V1133a1.017,1.017,0,0,0,1,1h63.955a1.018,1.018,0,0,0,1.006-1v-37.01Zm-11.454-10a1.51,1.51,0,1,1-1.493,1.51A1.5,1.5,0,0,1,295.5,1085.99Zm5,0a1.51,1.51,0,1,1-1.493,1.51A1.5,1.5,0,0,1,300.5,1085.99Z" transform="translate(-237.484 -1071.985)"/>
</svg>
