<svg id="icon-member-seller" xmlns="http://www.w3.org/2000/svg" width="228" height="228.09" viewBox="0 0 76 76.03">
  <metadata><?xpacket begin="﻿" id="W5M0MpCehiHzreSzNTczkc9d"?>
<x:xmpmeta xmlns:x="adobe:ns:meta/" x:xmptk="Adobe XMP Core 5.6-c142 79.160924, 2017/07/13-01:06:39        ">
   <rdf:RDF xmlns:rdf="http://www.w3.org/1999/02/22-rdf-syntax-ns#">
      <rdf:Description rdf:about=""/>
   </rdf:RDF>
</x:xmpmeta>
                                                                                                    
                                                                                                    
                                                                                                    
                                                                                                    
                                                                                                    
                                                                                                    
                                                                                                    
                                                                                                    
                                                                                                    
                                                                                                    
                                                                                                    
                                                                                                    
                                                                                                    
                                                                                                    
                                                                                                    
                                                                                                    
                                                                                                    
                                                                                                    
                                                                                                    
                                                                                                    
                           
<?xpacket end="w"?></metadata>
<defs>
    <style>
      .cls-1 {
        fill: #fff;
      }

      .cls-1, .cls-2, .cls-4 {
        fill-rule: evenodd;
      }

      .cls-2, .cls-3 {
        fill: #d7b077;
      }

      .cls-4 {
        fill: #222;
      }
    </style>
  </defs>
  <path id="Rectangle_1722_copy" data-name="Rectangle 1722 copy" class="cls-1" d="M344,1144H329v-9h2v-2h2v-2h7v-4h-6v-8h6v-33h46v58H344Z" transform="translate(-325.719 -1069.97)"/>
  <path id="Rounded_Rectangle_540" data-name="Rounded Rectangle 540" class="cls-2" d="M371.157,1126.01l26.848-26.85a2,2,0,0,1,2.85-.02h0a2.015,2.015,0,0,1-.021,2.85l-26.849,26.84a2.01,2.01,0,0,1-2.85.03h0A2.015,2.015,0,0,1,371.157,1126.01Z" transform="translate(-325.719 -1069.97)"/>
  <circle class="cls-3" cx="6.281" cy="51.03" r="6"/>
  <path class="cls-4" d="M384.4,1145.99H352.09a1,1,0,1,1,0-1.99H384.4a2.607,2.607,0,0,0,2.6-2.6v-52.81a2.607,2.607,0,0,0-2.6-2.6H373.988v7.28a1.994,1.994,0,1,1-1.973.01v-7.29H355.978v7.28a1.988,1.988,0,0,1,1.027,1.73,2.011,2.011,0,1,1-3-1.73v-7.28H343.591a2.607,2.607,0,0,0-2.605,2.6v23.8a1,1,0,1,1-1.993,0v-23.8a4.608,4.608,0,0,1,4.6-4.6H354v-2.73c0-6.22,4.707-11.28,10.492-11.28s9.492,5.06,9.492,11.28v2.73H384.4a4.608,4.608,0,0,1,4.6,4.6v52.81A4.6,4.6,0,0,1,384.4,1145.99Zm-12.388-64.73c0-5.12-2.822-9.28-7.519-9.28s-8.518,4.16-8.518,9.28v2.73h16.037v-2.73Zm-28,41.24a5.5,5.5,0,1,1-5.5-5.51A5.511,5.511,0,0,1,344.01,1122.5Zm-5.5-3.46a3.455,3.455,0,1,0,3.449,3.46A3.457,3.457,0,0,0,338.509,1119.04Zm8.478,19.04v4.9a1,1,0,1,1-2,0v-4.9a6.995,6.995,0,1,0-13.989,0v4.9a1,1,0,1,1-2,0v-4.9A8.994,8.994,0,1,1,346.987,1138.08Z" transform="translate(-325.719 -1069.97)"/>
</svg>
