<svg id="icon-member-nomal" xmlns="http://www.w3.org/2000/svg" width="228" height="228" viewBox="0 0 76 76">
  <metadata><?xpacket begin="﻿" id="W5M0MpCehiHzreSzNTczkc9d"?>
<x:xmpmeta xmlns:x="adobe:ns:meta/" x:xmptk="Adobe XMP Core 5.6-c142 79.160924, 2017/07/13-01:06:39        ">
   <rdf:RDF xmlns:rdf="http://www.w3.org/1999/02/22-rdf-syntax-ns#">
      <rdf:Description rdf:about=""/>
   </rdf:RDF>
</x:xmpmeta>
                                                                                                    
                                                                                                    
                                                                                                    
                                                                                                    
                                                                                                    
                                                                                                    
                                                                                                    
                                                                                                    
                                                                                                    
                                                                                                    
                                                                                                    
                                                                                                    
                                                                                                    
                                                                                                    
                                                                                                    
                                                                                                    
                                                                                                    
                                                                                                    
                                                                                                    
                                                                                                    
                           
<?xpacket end="w"?></metadata>
<defs>
    <style>
      .cls-1 {
        fill: #fff;
      }

      .cls-1, .cls-3, .cls-4 {
        fill-rule: evenodd;
      }

      .cls-2, .cls-4 {
        fill: #d7b077;
      }

      .cls-3 {
        fill: #222;
      }
    </style>
  </defs>
  <path class="cls-1" d="M64,1079h52v65H64v-65Zm24-7h4v13H88v-13Z" transform="translate(-57.672 -1070)"/>
  <circle class="cls-2" cx="26.328" cy="28" r="6"/>
  <path class="cls-3" d="M114,1146H66a4,4,0,0,1-4-4v-61a4,4,0,0,1,4-4H86v-3a4,4,0,0,1,8,0v3h20a4,4,0,0,1,4,4v61A4,4,0,0,1,114,1146Zm-22-72a2,2,0,1,0-4,0v6a2,2,0,1,0,4,0v-6Zm24,7a2,2,0,0,0-2-2H94v1a4,4,0,0,1-8,0v-1H66a2,2,0,0,0-2,2v61a2,2,0,0,0,2,2h48a2,2,0,0,0,2-2v-61Zm-15,37.99H79a4,4,0,0,1-4-4v-25a4,4,0,0,1,4-4h22a4,4,0,0,1,4,4v25A4,4,0,0,1,101,1118.99Zm-16.916-2H95.916v-3.55a5.923,5.923,0,1,0-11.832,0v3.55Zm18.916-27a2,2,0,0,0-2-2H79a2,2,0,0,0-2,2v25a2,2,0,0,0,2,2h2.986v-3.55a8.025,8.025,0,1,1,16.029,0v3.55H101a2,2,0,0,0,2-2v-25Zm-13,14a4.99,4.99,0,1,1,5.015-4.99A5.01,5.01,0,0,1,90,1103.99Zm0-7.82a2.83,2.83,0,1,0,2.845,2.83A2.841,2.841,0,0,0,90,1096.17ZM80.977,1126H99.023a1,1,0,0,1,0,2H80.977A1,1,0,0,1,80.977,1126Zm0,6.01H99.023a1,1,0,0,1,0,2H80.977A1,1,0,0,1,80.977,1132.01Z" transform="translate(-57.672 -1070)"/>
  <path id="Rounded_Rectangle_540_copy" data-name="Rounded Rectangle 540 copy" class="cls-4" d="M112.672,1129.99h14.687a2,2,0,0,1,2,2h0a2,2,0,0,1-2,2H112.672a2,2,0,0,1-2-2h0A2,2,0,0,1,112.672,1129.99Z" transform="translate(-57.672 -1070)"/>
</svg>
